<svg xmlns="http://www.w3.org/2000/svg" viewBox="0 0 16 16" shape-rendering="crispEdges">
  <rect width="16" height="16" rx="3.5" fill="#6366f1" />
  <g transform="translate(2.5 4)" fill="#ffffff">
    <rect x="2" y="0" width="1" height="1" />
    <rect x="8" y="0" width="1" height="1" />
    <rect x="3" y="1" width="1" height="1" />
    <rect x="7" y="1" width="1" height="1" />
    <rect x="2" y="2" width="7" height="1" />
    <rect x="1" y="3" width="2" height="1" />
    <rect x="8" y="3" width="2" height="1" />
    <rect x="0" y="4" width="11" height="1" />
    <rect x="0" y="5" width="1" height="1" />
    <rect x="2" y="5" width="7" height="1" />
    <rect x="10" y="5" width="1" height="1" />
    <rect x="0" y="6" width="1" height="1" />
    <rect x="2" y="6" width="1" height="1" />
    <rect x="8" y="6" width="1" height="1" />
    <rect x="10" y="6" width="1" height="1" />
    <rect x="3" y="7" width="2" height="1" />
    <rect x="6" y="7" width="2" height="1" />
  </g>
</svg>
